<svg width="443" height="443" viewBox="0 0 443 443" fill="none" xmlns="http://www.w3.org/2000/svg">
<path d="M328.396 0H114.604C51.3098 0 0 51.3098 0 114.604V328.396C0 391.69 51.3098 443 114.604 443H328.396C391.69 443 443 391.69 443 328.396V114.604C443 51.3098 391.69 0 328.396 0Z" fill="#005AC8"/>
<path d="M178.438 183.996C178.438 191.101 176.718 196.545 173.223 200.27C169.728 203.994 164.628 205.885 157.923 205.885C151.219 205.885 145.947 203.994 142.051 200.27C138.154 196.545 136.263 191.101 136.263 183.996V178.724H144.458V183.996C144.458 188.294 145.546 191.732 147.781 194.368C150.016 197.003 153.397 198.264 157.923 198.264C162.45 198.264 165.659 196.946 167.493 194.368C169.327 191.789 170.243 188.294 170.243 183.996V143.77H163.195V136.149H184.282V143.77H178.438V183.996Z" fill="white"/>
<path d="M237.344 187.549H208.005L203.02 204.567H194.253L214.939 136.149H230.353L251.039 204.567H242.272L237.286 187.549H237.344ZM222.101 139.702L210.297 179.927H235.109L223.305 139.702H222.159H222.101Z" fill="white"/>
<path d="M307.768 204.51H299.573V181.647C299.573 179.928 299.172 178.667 298.427 177.75C297.625 176.833 296.25 176.375 294.302 176.375H272.985V204.51H264.791V136.092H289.202C292.697 136.092 295.792 136.607 298.37 137.582C300.949 138.556 303.126 139.931 304.845 141.65C306.564 143.369 307.882 145.317 308.742 147.552C309.601 149.787 310.06 152.136 310.06 154.657V157.58C310.06 160.101 309.372 162.68 307.94 165.201C306.564 167.722 304.387 169.671 301.464 171.046V172.192C303.413 172.536 304.96 173.281 306.049 174.541C307.137 175.802 307.71 177.521 307.71 179.813V204.453L307.768 204.51ZM272.985 168.754H288.228C292.869 168.754 296.307 167.78 298.542 165.774C300.777 163.768 301.923 160.846 301.923 157.007V155.23C301.923 151.792 300.777 148.985 298.542 146.864C296.307 144.744 292.869 143.713 288.228 143.713H272.985V168.696V168.754Z" fill="white"/>
<path d="M131.737 237.115H140.504L158.382 301.98H159.528L177.406 237.115H186.173L166.805 305.533H150.99L131.622 237.115H131.737Z" fill="white"/>
<path d="M200.957 237.115H244.334V244.736H226.743V297.912H244.334V305.533H200.957V297.912H218.549V244.736H200.957V237.115Z" fill="white"/>
<path d="M302.496 256.826C302.496 254.592 302.037 252.643 301.178 250.982C300.318 249.263 299.115 247.887 297.625 246.799C296.135 245.71 294.416 244.85 292.468 244.277C290.52 243.704 288.457 243.418 286.337 243.418C284.446 243.418 282.669 243.647 280.95 244.163C279.231 244.679 277.742 245.366 276.424 246.283C275.106 247.2 274.017 248.346 273.272 249.664C272.47 250.982 272.126 252.529 272.126 254.305V254.878C272.126 256.769 272.527 258.374 273.272 259.692C274.074 261.01 275.22 262.156 276.767 263.13C278.315 264.047 280.205 264.849 282.498 265.479C284.79 266.109 287.426 266.625 290.52 267.084C297.683 268.172 302.954 270.292 306.335 273.387C309.716 276.481 311.435 280.607 311.435 285.821V286.967C311.435 289.89 310.919 292.583 309.945 295.047C308.971 297.511 307.424 299.574 305.476 301.35C303.47 303.126 301.006 304.502 298.084 305.476C295.161 306.45 291.78 306.966 287.941 306.966C283.586 306.966 279.747 306.335 276.366 305.075C272.985 303.814 270.235 302.038 267.943 299.803C265.651 297.568 263.989 294.932 262.786 291.895C261.582 288.858 261.009 285.535 261.009 281.982V279.06H269.204V281.409C269.204 287.426 270.865 291.895 274.132 294.875C277.398 297.855 281.982 299.344 287.884 299.344C292.984 299.344 296.766 298.198 299.344 295.964C301.923 293.729 303.184 290.749 303.184 287.025V286.452C303.184 282.842 301.866 280.148 299.23 278.257C296.594 276.366 292.296 274.991 286.394 274.132C282.956 273.673 279.804 272.986 277.054 272.011C274.303 271.095 271.897 269.834 269.948 268.287C268 266.74 266.51 264.906 265.479 262.786C264.448 260.608 263.932 258.087 263.932 255.165V254.019C263.932 251.326 264.505 248.919 265.594 246.684C266.682 244.449 268.229 242.558 270.235 240.897C272.241 239.292 274.59 238.032 277.34 237.115C280.091 236.255 283.185 235.797 286.451 235.797C290.291 235.797 293.729 236.37 296.766 237.458C299.803 238.547 302.324 240.037 304.444 241.928C306.564 243.819 308.111 245.939 309.2 248.46C310.289 250.982 310.805 253.618 310.805 256.311V260.437H302.611V256.941L302.496 256.826Z" fill="white"/>
<path d="M327.422 364.898V357.334H376.243V364.898" fill="white"/>
</svg>
